<?xml version="1.0" encoding="UTF-8"?>
<svg id="Calque_1" data-name="Calque 1" xmlns="http://www.w3.org/2000/svg" viewBox="0 0 252 252">
  <defs>
    <style>
      .cls-1 {
        fill: #6f6f6e;
      }

      .cls-2 {
        fill: #fff;
      }

      .cls-3 {
        fill: #6fb535;
      }

      .cls-4 {
        fill: #1d1d1b;
      }

      .cls-5 {
        fill: none;
        stroke: #1d1d1b;
        stroke-miterlimit: 10;
        stroke-width: 9.15px;
      }

      .cls-6 {
        fill: #d73715;
      }

      .cls-7 {
        fill: #3b79bc;
      }

      .cls-8 {
        fill: #c6c6c5;
      }
    </style>
  </defs>
  <g>
    <g>
      <polygon class="cls-8" points="188.09 235.27 14.84 187.04 63.91 16.73 237.16 64.96 188.09 235.27"/>
      <path class="cls-4" d="M189.41,237.59L12.49,188.33,62.59,14.41l176.92,49.25-50.1,173.92ZM17.2,185.75l169.57,47.21,48.02-166.7L65.22,19.05,17.2,185.75Z"/>
    </g>
    <polygon class="cls-4" points="61.13 33.25 57.46 32.23 66.68 .21 70.36 1.23 61.13 33.25"/>
    <polygon class="cls-4" points="77.71 22.52 49.06 14.55 50.1 10.94 78.75 18.91 77.71 22.52"/>
    <polygon class="cls-4" points="234.38 81.48 230.71 80.46 239.93 48.44 243.6 49.46 234.38 81.48"/>
    <polygon class="cls-4" points="250.96 70.75 222.31 62.78 223.35 59.17 252 67.14 250.96 70.75"/>
    <polygon class="cls-4" points="12.07 203.56 8.4 202.54 17.62 170.52 21.29 171.54 12.07 203.56"/>
    <polygon class="cls-4" points="28.65 192.83 0 184.86 1.04 181.25 29.69 189.22 28.65 192.83"/>
    <polygon class="cls-4" points="185.32 251.79 181.64 250.77 190.87 218.75 194.54 219.77 185.32 251.79"/>
    <polygon class="cls-4" points="201.9 241.06 173.25 233.09 174.29 229.48 202.94 237.45 201.9 241.06"/>
  </g>
  <polygon class="cls-1" points="226.87 202.38 48.3 225.16 25.13 49.62 203.7 26.84 226.87 202.38"/>
  <g>
    <polygon class="cls-2" points="159.74 133.83 138.36 121.48 138.34 96.78 113.64 96.78 113.64 121.48 92.26 133.83 104.61 155.22 125.99 142.87 147.39 155.22 159.74 133.83"/>
    <path class="cls-4" d="M104.15,156.93l-13.6-23.56,21.84-12.61v-25.23s27.2,0,27.2,0l.02,25.23,21.84,12.61-13.6,23.56-21.85-12.61-21.84,12.61ZM125.99,141.42l20.94,12.08,11.09-19.22-20.92-12.08-.02-24.17h-22.19v24.17s-20.92,12.08-20.92,12.08l11.09,19.22,20.92-12.08Z"/>
  </g>
  <g>
    <path class="cls-5" d="M157.53,36.73l-25.34-14.63c-1.79-1.03-3.78-1.57-5.79-1.64h-.79c-2.01.06-4,.61-5.79,1.64l-25.34,14.63c-3.83,2.21-6.18,6.29-6.18,10.71v29.26c0,4.42,2.36,8.5,6.18,10.71l6.69,3.86,1.97,8.29c.28,1.18,1.01,2.16,2.06,2.77.67.39,1.42.59,2.17.59.42,0,.84-.06,1.26-.19l9.22-2.76,4.88,5.17c.83.88,1.96,1.46,3.17,1.49,1.26.03,2.43-.46,3.29-1.37l4.99-5.29,9.22,2.76c.42.12.84.19,1.26.19.75,0,1.5-.2,2.17-.59,1.05-.61,1.78-1.59,2.06-2.77l1.97-8.29,6.69-3.86c3.83-2.21,6.18-6.29,6.18-10.71v-29.26c0-4.42-2.36-8.5-6.18-10.71Z"/>
    <path class="cls-5" d="M223.36,178.65c-.71-1.17-1.52-2.06-2.39-2.73v-29.3c0-3.87-1.8-7.47-4.82-9.8-.43-.33-.89-.64-1.36-.91l-25.34-14.63c-1.79-1.03-3.78-1.57-5.79-1.64h-.79c-2.01.06-4,.61-5.79,1.64l-25.34,14.63c-.48.28-.93.58-1.36.91-3.01,2.32-4.82,5.93-4.82,9.8v29.21c-.91.68-1.76,1.6-2.5,2.82-2.29,3.79-2.57,7.9-.74,10.99,1.5,2.54,4.16,3.98,7.35,3.98.14,0,.29,0,.43,0,3.94-.16,6.68-.89,8.42-1.57-.66,3.44.29,7.03,2.89,9.8,1.31,1.39,3.04,1.9,4.98,1.9,2.7,0,5.8-.98,8.67-1.89,2.47-.78,4.8-1.52,6.49-1.52h3.35c1.68,0,4.02.74,6.49,1.52,2.87.91,5.97,1.89,8.67,1.89,1.94,0,3.67-.5,4.98-1.9,2.6-2.77,3.55-6.35,2.89-9.8,1.74.68,4.48,1.41,8.42,1.57.14,0,.29,0,.43,0,3.18,0,5.85-1.43,7.35-3.98,1.83-3.1,1.55-7.21-.74-10.99Z"/>
    <path class="cls-5" d="M107.73,172.73l-.44-2.4c-.51-2.82-.77-5.69-.77-8.56v-16.18c0-3.77-2.03-7.28-5.29-9.17l-27.12-15.66c-1.61-.93-3.44-1.42-5.29-1.42s-3.69.49-5.29,1.42l-27.12,15.66c-3.27,1.89-5.29,5.4-5.29,9.17v.13c-.12,2.54-.7,9.05-3.18,14.87-.91,2.13-.79,4.1.3,5.27.42.45,1.24,1.03,2.66,1.03.29,0,.62-.03.97-.09-.27.8-.57,1.62-.86,2.42-1.96,5.42-4.18,11.57.52,14.28,6.47,3.74,26.92,15.31,27.12,15.42,3.09,1.78,6.61,2.73,10.17,2.73s7.08-.94,10.17-2.73l23.94-13.82c4.27-2.47,6.29-7.66,4.8-12.36Z"/>
    <g>
      <path class="cls-3" d="M214.29,176.09c-1.99.55-3.43,1.98-3.43,3.38,0,2.05.84,2.9,1.49,3.26.42.23.68.68.63,1.16h0c-.04.42-.48.7-.87.55-1.29-.48-2.91-1.87-2.91-4.97,0-2.17,1.91-4.22,4.64-4.98,1.62-.45,3.59-.44,5.47.41v-8.1h0v-20.18c0-3.35-1.56-6.47-4.17-8.48-.19-.14-.38-.28-.58-.41-.2-.13-.4-.26-.61-.38l-25.34-14.63c-1.53-.89-3.24-1.35-4.96-1.42h-.79c-1.72.06-3.42.53-4.96,1.42l-25.34,14.63c-.21.12-.41.25-.61.38-.2.13-.39.27-.58.41-.93.72-1.73,1.58-2.37,2.54-.26.38-.49.79-.69,1.2-.72,1.45-1.11,3.07-1.11,4.74v20.68h0v7.56c1.85-.8,3.77-.81,5.36-.36,2.73.76,4.64,2.81,4.64,4.98,0,3.1-1.62,4.5-2.91,4.97-.4.15-.83-.13-.87-.55h0c-.05-.48.21-.93.63-1.16.65-.36,1.49-1.22,1.49-3.26,0-1.41-1.44-2.83-3.43-3.38-1.12-.31-4.98-.99-7.65,3.42-1.97,3.25-2.25,6.73-.73,9.29,1.25,2.11,3.53,3.26,6.28,3.15,4.94-.2,7.83-1.35,9.1-2.01.58-1.47,1.47-2.88,2.68-4.14,2.53-2.66,5.83-2.73,8.07-1.92,2.15.78,3.6,2.4,3.71,4.11.2,3.26-1.15,4.07-2.87,5.11-.24.15-.5.3-.77.47-1.11.71-1.15,1.79-1.05,2.4.04.27-.11.54-.37.63h0c-.61.22-1.28-.2-1.3-.85-.04-1.16.33-2.62,1.84-3.58.28-.18.55-.34.8-.49,1.65-1,2.21-1.33,2.07-3.59-.06-1.04-1.12-2.11-2.62-2.66-.85-.31-3.81-1.11-6.3,1.5-3.94,4.14-4.1,9.8-.39,13.76,2.41,2.58,7.47.97,11.93-.44,2.6-.82,5.05-1.6,6.99-1.6h3.35c1.94,0,4.39.78,6.99,1.6,4.46,1.42,9.52,3.02,11.93.44,3.71-3.96,3.55-9.62-.39-13.76-2.49-2.61-5.45-1.81-6.3-1.5-1.5.55-2.56,1.62-2.62,2.66-.14,2.25.42,2.59,2.07,3.59.25.15.52.31.8.49,1.52.96,1.89,2.43,1.84,3.58-.03.65-.69,1.08-1.3.86h0c-.26-.1-.41-.36-.37-.64.09-.61.06-1.7-1.05-2.4-.27-.17-.53-.33-.77-.47-1.72-1.04-3.07-1.86-2.87-5.11.11-1.72,1.56-3.33,3.71-4.11,2.24-.82,5.54-.74,8.07,1.92,1.2,1.26,2.09,2.67,2.68,4.14,1.28.66,4.16,1.81,9.1,2.01,2.75.1,5.03-1.04,6.28-3.15,1.51-2.56,1.24-6.04-.73-9.29-2.67-4.41-6.53-3.73-7.65-3.42Z"/>
      <path class="cls-4" d="M223.36,178.65c-.71-1.17-1.52-2.06-2.39-2.73v-29.3c0-3.87-1.8-7.47-4.82-9.8-.43-.33-.89-.64-1.36-.91l-25.34-14.63c-1.79-1.03-3.78-1.57-5.79-1.64h-.79c-2.01.06-4,.61-5.79,1.64l-25.34,14.63c-.48.28-.93.58-1.36.91-3.01,2.32-4.82,5.93-4.82,9.8v29.21c-.91.68-1.76,1.6-2.5,2.82-2.29,3.79-2.57,7.9-.74,10.99,1.5,2.54,4.16,3.98,7.35,3.98.14,0,.29,0,.43,0,3.94-.16,6.68-.89,8.42-1.57-.66,3.44.29,7.03,2.89,9.8,1.31,1.39,3.04,1.9,4.98,1.9,2.7,0,5.8-.98,8.67-1.89,2.47-.78,4.8-1.52,6.49-1.52h3.35c1.68,0,4.02.74,6.49,1.52,2.87.91,5.97,1.89,8.67,1.89,1.94,0,3.67-.5,4.98-1.9,2.6-2.77,3.55-6.35,2.89-9.8,1.74.68,4.48,1.41,8.42,1.57.14,0,.29,0,.43,0,3.18,0,5.85-1.43,7.35-3.98,1.83-3.1,1.55-7.21-.74-10.99ZM222.68,188.8c-1.25,2.11-3.53,3.26-6.28,3.15-4.94-.2-7.83-1.35-9.1-2.01-.58-1.47-1.47-2.88-2.68-4.14-2.53-2.66-5.83-2.73-8.07-1.92-2.15.78-3.6,2.4-3.71,4.11-.2,3.26,1.15,4.07,2.87,5.11.24.15.5.3.77.47,1.11.71,1.15,1.79,1.05,2.4-.04.27.11.54.37.63h0c.61.22,1.28-.2,1.3-.85.04-1.16-.33-2.62-1.85-3.58-.28-.18-.55-.34-.8-.49-1.65-1-2.21-1.33-2.07-3.59.06-1.04,1.12-2.11,2.62-2.66.85-.31,3.81-1.11,6.3,1.5,3.94,4.14,4.1,9.8.39,13.76-2.41,2.58-7.47.97-11.93-.44-2.6-.82-5.05-1.6-6.99-1.6h-3.35c-1.94,0-4.39.78-6.99,1.6-4.46,1.42-9.52,3.02-11.93.44-3.71-3.96-3.55-9.62.39-13.76,2.49-2.61,5.45-1.81,6.3-1.5,1.5.55,2.56,1.62,2.62,2.66.14,2.25-.42,2.59-2.07,3.59-.25.15-.52.31-.8.49-1.52.96-1.89,2.43-1.85,3.58.03.65.69,1.08,1.3.86h0c.26-.1.41-.36.37-.64-.09-.61-.06-1.7,1.05-2.4.27-.17.53-.33.77-.47,1.72-1.04,3.07-1.86,2.87-5.11-.11-1.72-1.56-3.33-3.71-4.11-2.24-.82-5.54-.74-8.07,1.92-1.2,1.26-2.09,2.67-2.68,4.14-1.28.66-4.16,1.81-9.1,2.01-2.75.1-5.03-1.04-6.28-3.15-1.51-2.56-1.24-6.04.73-9.29,2.67-4.41,6.53-3.73,7.65-3.42,1.99.55,3.43,1.98,3.43,3.38,0,2.05-.84,2.9-1.49,3.26-.42.23-.68.68-.63,1.16h0c.04.42.48.7.87.55,1.29-.48,2.91-1.87,2.91-4.97,0-2.17-1.91-4.22-4.64-4.98-1.59-.44-3.51-.44-5.36.36v-7.56h0v-20.68c0-1.67.39-3.29,1.11-4.74.2-.41.44-.82.69-1.2.64-.96,1.44-1.82,2.37-2.54.19-.14.38-.28.58-.41.2-.13.4-.26.61-.38l25.34-14.63c1.53-.89,3.24-1.35,4.96-1.42h.79c1.72.06,3.42.53,4.96,1.42l25.34,14.63c.21.12.41.25.61.38.2.13.39.27.58.41,2.61,2.01,4.17,5.13,4.17,8.48v20.18h0v8.1c-1.88-.85-3.85-.86-5.47-.41-2.73.76-4.64,2.81-4.64,4.98,0,3.1,1.62,4.5,2.91,4.97.4.15.83-.13.87-.55h0c.05-.48-.21-.93-.63-1.16-.65-.36-1.49-1.22-1.49-3.26,0-1.41,1.44-2.83,3.43-3.38,1.12-.31,4.98-.99,7.65,3.42,1.97,3.25,2.25,6.73.73,9.29ZM146.74,175.09s.08-.04.12-.06c-.04.02-.08.04-.12.06Z"/>
      <circle class="cls-4" cx="166.1" cy="152.41" r="6.36"/>
      <circle class="cls-4" cx="200.45" cy="152.41" r="6.36"/>
    </g>
    <g>
      <path class="cls-6" d="M106.1,173.08l-.44-2.45c-.53-2.92-.8-5.88-.8-8.85v-16.18c0-3.18-1.71-6.14-4.46-7.73l-27.12-15.66c-1.36-.78-2.9-1.2-4.46-1.2s-3.11.41-4.46,1.2l-27.12,15.66c-2.49,1.44-4.12,3.99-4.41,6.82,0,.77-.18,9.08-3.36,16.56-.63,1.48-.64,2.82-.01,3.48.54.58,1.6.66,3,.24.17-.58.32-1.15.43-1.7.25-1.19,1.2-2.99,1.5-3.28s.38.23.4.56c.18,2.65-.98,5.85-2.21,9.25-1.91,5.28-3.71,10.26-.21,12.28,6.47,3.73,26.91,15.3,27.11,15.42,2.84,1.64,6.07,2.51,9.35,2.51s6.51-.87,9.34-2.5l23.94-13.82c3.62-2.09,5.31-6.49,4.03-10.47l-.03-.11Z"/>
      <path class="cls-4" d="M107.73,172.73l-.44-2.4c-.51-2.82-.77-5.69-.77-8.56v-16.18c0-3.77-2.03-7.28-5.29-9.17l-27.12-15.66c-1.61-.93-3.44-1.42-5.29-1.42s-3.69.49-5.29,1.42l-27.12,15.66c-3.27,1.89-5.29,5.4-5.29,9.17v.13c-.12,2.54-.7,9.05-3.18,14.87-.91,2.13-.79,4.1.3,5.27.42.45,1.24,1.03,2.66,1.03.29,0,.62-.03.97-.09-.27.8-.57,1.62-.86,2.42-1.96,5.42-4.18,11.57.52,14.28,6.47,3.74,26.92,15.31,27.12,15.42,3.09,1.78,6.61,2.73,10.17,2.73s7.08-.94,10.17-2.73l23.94-13.82c4.27-2.47,6.29-7.66,4.8-12.36ZM102.1,183.66l-23.94,13.82c-2.84,1.64-6.07,2.5-9.34,2.5s-6.51-.87-9.35-2.51c-.21-.12-20.64-11.68-27.11-15.42-3.49-2.02-1.69-7,.21-12.28,1.23-3.39,2.38-6.6,2.21-9.25-.02-.32-.11-.85-.4-.56s-1.25,2.09-1.5,3.28c-.11.55-.26,1.12-.43,1.7-1.4.42-2.46.34-3-.24-.62-.67-.62-2,.01-3.48,3.18-7.48,3.35-15.79,3.36-16.56.29-2.83,1.92-5.38,4.41-6.82l27.12-15.66c1.36-.78,2.9-1.2,4.46-1.2s3.11.41,4.46,1.2l27.12,15.66c2.75,1.59,4.46,4.55,4.46,7.73v16.18c0,2.97.27,5.93.8,8.85l.44,2.45.03.11c1.28,3.98-.42,8.38-4.03,10.47Z"/>
      <ellipse class="cls-4" cx="85.18" cy="152.41" rx="3.49" ry="8.18"/>
      <ellipse class="cls-4" cx="52.45" cy="152.41" rx="3.49" ry="8.18"/>
    </g>
    <g>
      <path class="cls-7" d="M156.7,38.17l-25.34-14.63c-1.53-.89-3.24-1.35-4.96-1.42h-.79c-1.72.06-3.42.53-4.96,1.42l-25.34,14.63c-3.31,1.91-5.35,5.45-5.35,9.27v29.26c0,3.82,2.04,7.36,5.35,9.27l10.89,6.29c.6.35.98.99.98,1.69,0,.35-.38.57-.68.39l-3.35-1.93,1.6,6.77c.17.73.63,1.34,1.28,1.72.65.38,1.41.46,2.12.25l8.42-2.52-1.29-1.37c-.37-.4-.09-1.05.45-1.05s1.05.22,1.42.61l6.89,7.3c.56.59,1.34.9,2.16.84.71-.05,1.36-.41,1.84-.93l6.81-7.22c.37-.39.88-.61,1.42-.61s.83.65.45,1.05l-1.29,1.37,8.42,2.52c.72.22,1.47.13,2.12-.25.65-.38,1.1-.98,1.28-1.72l1.6-6.77-3.35,1.93c-.3.18-.68-.04-.68-.39,0-.7.37-1.34.98-1.69l10.89-6.29c3.31-1.91,5.35-5.45,5.35-9.27v-29.26c0-3.82-2.04-7.36-5.35-9.27Z"/>
      <path class="cls-4" d="M157.53,36.73l-25.34-14.63c-1.79-1.03-3.78-1.57-5.79-1.64h-.79c-2.01.06-4,.61-5.79,1.64l-25.34,14.63c-3.83,2.21-6.18,6.29-6.18,10.71v29.26c0,4.42,2.36,8.5,6.18,10.71l6.69,3.86,1.97,8.29c.28,1.18,1.01,2.16,2.06,2.77.67.39,1.42.59,2.17.59.42,0,.84-.06,1.26-.19l9.22-2.76,4.88,5.17c.83.88,1.96,1.46,3.17,1.49,1.26.03,2.43-.46,3.29-1.37l4.99-5.29,9.22,2.76c.42.12.84.19,1.26.19.75,0,1.5-.2,2.17-.59,1.05-.61,1.78-1.59,2.06-2.77l1.97-8.29,6.69-3.86c3.83-2.21,6.18-6.29,6.18-10.71v-29.26c0-4.42-2.36-8.5-6.18-10.71ZM162.05,76.7c0,3.82-2.04,7.36-5.35,9.27l-10.89,6.29c-.6.35-.98.99-.98,1.69,0,.35.38.57.68.39l3.35-1.93-1.6,6.77c-.17.73-.63,1.34-1.28,1.72-.65.38-1.41.46-2.12.25l-8.42-2.52,1.29-1.37c.37-.4.09-1.05-.45-1.05s-1.05.22-1.42.61l-6.81,7.22c-.49.52-1.14.88-1.84.93-.83.06-1.6-.25-2.16-.84l-6.89-7.3c-.37-.39-.88-.61-1.42-.61s-.83.65-.45,1.05l1.29,1.37-8.42,2.52c-.72.22-1.47.13-2.12-.25-.65-.38-1.1-.98-1.28-1.72l-1.6-6.77,3.35,1.93c.3.18.68-.04.68-.39,0-.7-.37-1.34-.98-1.69l-10.89-6.29c-3.31-1.91-5.35-5.45-5.35-9.27v-29.26c0-3.82,2.04-7.36,5.35-9.27l25.34-14.63c1.53-.89,3.24-1.35,4.96-1.42h.79c1.72.06,3.42.53,4.96,1.42l25.34,14.63c3.31,1.91,5.35,5.45,5.35,9.27v29.26Z"/>
      <polygon class="cls-4" points="117.95 52.24 113.21 47.51 108.83 51.88 104.46 47.51 99.72 52.24 104.1 56.62 99.72 61 104.46 65.73 108.83 61.35 113.21 65.73 117.95 61 113.57 56.62 117.95 52.24"/>
      <circle class="cls-4" cx="143.19" cy="56.62" r="9.54"/>
      <polygon class="cls-4" points="126.01 66.28 118.67 79 133.35 79 126.01 66.28"/>
    </g>
  </g>
</svg>